{
  "accessors": [
    {
      "bufferView": 2,
      "componentType": 5126,
      "count": 57375,
      "max": [
        0.15924271941184998,
        0.08105809986591339,
        1.0008392333984375
      ],
      "min": [
        -0.15923389792442322,
        -0.08105649054050446,
        -0.0008779764175415039
      ],
      "type": "VEC3"
    },
    {
      "bufferView": 2,
      "byteOffset": 688500,
      "componentType": 5126,
      "count": 57375,
      "max": [
        0.9999964237213135,
        0.9999792575836182,
        0.9999938607215881
      ],
      "min": [
        -0.9999861717224121,
        -0.999995768070221,
        -0.9999648928642273
      ],
      "type": "VEC3"
    },
    {
      "bufferView": 1,
      "componentType": 5126,
      "count": 57375,
      "max": [
        0.9887462258338928,
        0.988746166229248
      ],
      "min": [
        0.01133325882256031,
        0.01126730628311634
      ],
      "type": "VEC2"
    },
    {
      "bufferView": 0,
      "componentType": 5125,
      "count": 293382,
      "type": "SCALAR"
    }
  ],
  "asset": {
    "extras": {
      "author": "Devlane (https://sketchfab.com/piyush20298)",
      "license": "SKETCHFAB Standard (https://sketchfab.com/licenses)",
      "source": "https://sketchfab.com/3d-models/free-female-mannequin-base-mesh-187300a221c04178b96b84bf9cab97e0",
      "title": "Free Female Mannequin Base Mesh"
    },
    "generator": "Sketchfab-16.99.0",
    "version": "2.0"
  },
  "bufferViews": [
    {
      "buffer": 0,
      "byteLength": 1173528,
      "name": "floatBufferViews",
      "target": 34963
    },
    {
      "buffer": 0,
      "byteLength": 459000,
      "byteOffset": 1173528,
      "byteStride": 8,
      "name": "floatBufferViews",
      "target": 34962
    },
    {
      "buffer": 0,
      "byteLength": 1377000,
      "byteOffset": 1632528,
      "byteStride": 12,
      "name": "floatBufferViews",
      "target": 34962
    }
  ],
  "buffers": [
    {
      "byteLength": 3009528,
      "uri": "scene.bin"
    }
  ],
  "extensionsUsed": [
    "KHR_materials_specular"
  ],
  "materials": [
    {
      "doubleSided": true,
      "extensions": {
        "KHR_materials_specular": {
          "specularColorFactor": [
            1.0,
            1.0,
            1.0
          ],
          "specularFactor": 0.582705264377803
        }
      },
      "name": "skincolor",
      "pbrMetallicRoughness": {
        "baseColorFactor": [
          0.9101918935729972,
          0.7445183439476403,
          0.5568205526599855,
          1.0
        ],
        "metallicFactor": 0.7041654588355744,
        "roughnessFactor": 0.07257244765516349
      }
    }
  ],
  "meshes": [
    {
      "name": "model_skincolor_0",
      "primitives": [
        {
          "attributes": {
            "NORMAL": 1,
            "POSITION": 0,
            "TEXCOORD_0": 2
          },
          "indices": 3,
          "material": 0,
          "mode": 4
        }
      ]
    }
  ],
  "nodes": [
    {
      "children": [
        1
      ],
      "matrix": [
        0.36023950576782227,
        0.0,
        0.0,
        0.0,
        0.0,
        7.998923873660463e-17,
        -0.36023950576782227,
        0.0,
        0.0,
        0.36023950576782227,
        7.998923873660463e-17,
        0.0,
        0.0,
        0.0,
        0.0,
        1.0
      ],
      "name": "Sketchfab_model"
    },
    {
      "children": [
        2
      ],
      "matrix": [
        0.009999999776482582,
        0.0,
        0.0,
        0.0,
        0.0,
        0.0,
        0.009999999776482582,
        0.0,
        0.0,
        -0.009999999776482582,
        0.0,
        0.0,
        0.0,
        0.0,
        0.0,
        1.0
      ],
      "name": "2e5b247be55642669ff3112f5d91688c.fbx"
    },
    {
      "children": [
        3
      ],
      "name": "RootNode"
    },
    {
      "children": [
        4
      ],
      "matrix": [
        500.0,
        0.0,
        0.0,
        0.0,
        0.0,
        -8.14603396959157e-05,
        -499.9999999999934,
        0.0,
        0.0,
        499.9999999999934,
        -8.14603396959157e-05,
        0.0,
        0.0,
        250.00003051757813,
        0.0,
        1.0
      ],
      "name": "female_base"
    },
    {
      "children": [
        5
      ],
      "matrix": [
        1.0,
        0.0,
        0.0,
        0.0,
        0.0,
        1.0,
        2.646977960169688e-23,
        0.0,
        0.0,
        -2.646977960169688e-23,
        1.0,
        0.0,
        0.0,
        1.3234889800848443e-23,
        -0.5,
        1.0
      ],
      "name": "model"
    },
    {
      "mesh": 0,
      "name": "model_skincolor_0"
    }
  ],
  "scene": 0,
  "scenes": [
    {
      "name": "Sketchfab_Scene",
      "nodes": [
        0
      ]
    }
  ]
}
